<?xml version="1.0" encoding="utf-8"?>
<!-- Generator: Adobe Illustrator 20.0.0, SVG Export Plug-In . SVG Version: 6.00 Build 0)  -->
<svg version="1.1" id="Layer_1" xmlns="http://www.w3.org/2000/svg" xmlns:xlink="http://www.w3.org/1999/xlink" x="0px" y="0px"
	 viewBox="0 0 297 114.4" style="enable-background:new 0 0 297 114.4;" xml:space="preserve">
<style type="text/css">
	.st0{fill:#D92316;}
	.st1{fill:#FCC115;}
	.st2{fill:#FFFFFF;}
</style>
<path class="st0" d="M68,114.4l-5.8-1.7c-0.6-0.2-13.5-4-19.3-17.9H9.1V8.1h86.8v86.8H58.3c0.5,5.3,2.5,10.2,6,14.7L68,114.4z
	 M13.1,90.9h32.6l0.5,1.3c2.6,7.1,7.4,11.4,11.2,13.8c-2-4.1-3.1-8.5-3.2-13.1l0-2h37.8V12.1H13.1V90.9z"/>
<path class="st1" d="M27.8,106.3l3.7-4.8c3.5-4.5,5.5-9.5,6-14.7H0V0h86.8v86.8H53c-5.7,13.9-18.7,17.7-19.3,17.9L27.8,106.3z
	 M4,82.8h37.8l0,2c-0.1,4.6-1.2,9-3.2,13.1c3.9-2.5,8.7-6.8,11.2-13.8l0.5-1.3h32.6V4H4V82.8z"/>
<path class="st2" d="M151.3,7.1c1.7,2.4,2.6,5.3,2.6,8.6c0,3.5-0.9,6.2-2.6,8.3c-1,1.2-2.4,2.3-4.3,3.2c2.9,1.1,5.1,2.7,6.5,5
	c1.5,2.3,2.2,5,2.2,8.3c0,3.4-0.8,6.4-2.5,9c-1.1,1.8-2.4,3.3-4,4.5c-1.8,1.4-3.9,2.3-6.4,2.8c-2.5,0.5-5.1,0.8-8,0.8h-25.5V1h27.4
	C143.6,1.1,148.5,3.1,151.3,7.1z M120.6,10.9v12.5h13.8c2.5,0,4.5-0.5,6-1.4s2.3-2.6,2.3-5c0-2.6-1-4.4-3-5.2
	c-1.8-0.6-4-0.9-6.7-0.9H120.6z M120.6,32.7v15.1h13.8c2.5,0,4.4-0.3,5.7-1c2.5-1.2,3.7-3.6,3.7-7.1c0-2.9-1.2-5-3.6-6.1
	c-1.3-0.6-3.2-0.9-5.7-1H120.6z"/>
<path class="st2" d="M171.2,10.8H160V0.7h11.1V10.8z M160,15.8h11.1v41.9H160V15.8z"/>
<path class="st2" d="M174.5,24v-7.8h5.8V4.5h10.8v11.7h6.8V24h-6.8v22.1c0,1.7,0.2,2.8,0.7,3.2c0.4,0.4,1.8,0.6,4,0.6
	c0.3,0,0.7,0,1.1,0c0.4,0,0.7,0,1.1-0.1v8.2l-5.2,0.2c-5.2,0.2-8.7-0.7-10.6-2.7c-1.2-1.3-1.8-3.2-1.8-5.8V24H174.5z"/>
<path class="st2" d="M210.8,44.3c0.2,1.9,0.7,3.3,1.5,4.2c1.4,1.5,3.9,2.2,7.6,2.2c2.2,0,3.9-0.3,5.2-1c1.3-0.6,1.9-1.6,1.9-2.9
	c0-1.2-0.5-2.2-1.5-2.8c-1-0.6-4.8-1.7-11.5-3.3c-4.8-1.2-8.1-2.7-10.1-4.4c-1.9-1.7-2.9-4.3-2.9-7.5c0-3.9,1.5-7.2,4.6-10
	c3-2.8,7.3-4.2,12.8-4.2c5.2,0,9.5,1,12.8,3.1c3.3,2.1,5.2,5.7,5.7,10.8h-11c-0.2-1.4-0.6-2.5-1.2-3.3c-1.2-1.5-3.3-2.2-6.2-2.2
	c-2.4,0-4.1,0.4-5.1,1.1c-1,0.7-1.5,1.6-1.5,2.6c0,1.3,0.5,2.2,1.6,2.7c1.1,0.6,4.9,1.6,11.4,3c4.4,1,7.6,2.6,9.8,4.7
	c2.2,2.1,3.2,4.7,3.2,7.9c0,4.2-1.5,7.5-4.6,10.2c-3.1,2.6-7.9,3.9-14.3,3.9c-6.6,0-11.5-1.4-14.6-4.2c-3.1-2.8-4.7-6.3-4.7-10.6
	H210.8z"/>
<path class="st2" d="M117.4,67.1c0.3,0.5,0.5,1,0.5,1.6c0,0.7-0.2,1.2-0.5,1.6c-0.2,0.2-0.5,0.4-0.8,0.6c0.5,0.2,1,0.5,1.2,0.9
	c0.3,0.4,0.4,1,0.4,1.6c0,0.6-0.2,1.2-0.5,1.7c-0.2,0.3-0.5,0.6-0.8,0.8c-0.3,0.3-0.7,0.4-1.2,0.5c-0.5,0.1-1,0.1-1.5,0.1h-4.9V66
	h5.2C115.9,66,116.8,66.4,117.4,67.1z M111.5,67.9v2.4h2.6c0.5,0,0.8-0.1,1.1-0.3c0.3-0.2,0.4-0.5,0.4-0.9c0-0.5-0.2-0.8-0.6-1
	c-0.3-0.1-0.8-0.2-1.3-0.2H111.5z M111.5,72v2.9h2.6c0.5,0,0.8-0.1,1.1-0.2c0.5-0.2,0.7-0.7,0.7-1.3c0-0.6-0.2-0.9-0.7-1.2
	c-0.3-0.1-0.6-0.2-1.1-0.2H111.5z"/>
<path class="st2" d="M123.2,71.9c0.4,0,0.7-0.1,0.8-0.2c0.3-0.1,0.4-0.3,0.4-0.6c0-0.3-0.1-0.6-0.3-0.7c-0.2-0.1-0.6-0.2-1-0.2
	c-0.5,0-0.9,0.1-1.1,0.4c-0.1,0.2-0.2,0.4-0.3,0.7h-2c0-0.7,0.2-1.3,0.6-1.7c0.6-0.7,1.5-1.1,2.8-1.1c0.9,0,1.7,0.2,2.3,0.5
	c0.7,0.3,1,1,1,2v3.7c0,0.3,0,0.6,0,0.9c0,0.3,0.1,0.5,0.1,0.6s0.2,0.2,0.3,0.2v0.3h-2.3c-0.1-0.2-0.1-0.3-0.1-0.5
	c0-0.1,0-0.3-0.1-0.5c-0.3,0.3-0.6,0.6-1,0.8c-0.5,0.3-1,0.4-1.5,0.4c-0.7,0-1.3-0.2-1.8-0.6c-0.5-0.4-0.7-1-0.7-1.7
	c0-1,0.4-1.7,1.1-2.1c0.4-0.2,1-0.4,1.8-0.5L123.2,71.9z M124.4,72.9c-0.1,0.1-0.3,0.2-0.4,0.2s-0.3,0.1-0.6,0.1l-0.5,0.1
	c-0.4,0.1-0.8,0.2-1,0.3c-0.3,0.2-0.5,0.5-0.5,0.9c0,0.4,0.1,0.6,0.3,0.8s0.4,0.2,0.7,0.2c0.5,0,0.9-0.1,1.3-0.4
	c0.4-0.3,0.6-0.7,0.6-1.4V72.9z"/>
<path class="st2" d="M132.7,68.6c0,0,0.1,0,0.2,0v2.1c-0.1,0-0.2,0-0.4,0c-0.1,0-0.2,0-0.2,0c-0.8,0-1.4,0.3-1.7,0.8
	c-0.2,0.3-0.2,0.8-0.2,1.4v3.8h-2.1v-8h2v1.4c0.3-0.5,0.6-0.9,0.8-1.1C131.5,68.8,132,68.6,132.7,68.6
	C132.7,68.6,132.7,68.6,132.7,68.6z"/>
<path class="st2" d="M138.9,71.6c0-0.3-0.1-0.6-0.3-0.8c-0.2-0.3-0.6-0.5-1.1-0.5c-0.7,0-1.2,0.3-1.4,1c-0.1,0.4-0.2,0.9-0.2,1.5
	c0,0.6,0.1,1.1,0.2,1.4c0.2,0.7,0.7,1,1.4,1c0.5,0,0.8-0.1,1-0.4s0.3-0.6,0.4-1h2.1c0,0.6-0.3,1.2-0.7,1.8c-0.7,0.9-1.6,1.4-2.9,1.4
	c-1.3,0-2.2-0.4-2.8-1.1c-0.6-0.8-0.9-1.7-0.9-3c0-1.4,0.3-2.4,1-3.2s1.6-1.1,2.8-1.1c1,0,1.8,0.2,2.5,0.7c0.6,0.4,1,1.2,1.1,2.4
	H138.9z"/>
<path class="st2" d="M147.7,69c0.6,0.2,1,0.6,1.4,1.2c0.3,0.5,0.5,1,0.6,1.6c0.1,0.4,0.1,0.9,0.1,1.6h-5.8c0,0.8,0.3,1.4,0.8,1.7
	c0.3,0.2,0.7,0.3,1.1,0.3c0.5,0,0.9-0.1,1.2-0.4c0.2-0.1,0.3-0.3,0.4-0.5h2.1c-0.1,0.5-0.3,1-0.8,1.4c-0.7,0.8-1.7,1.2-3,1.2
	c-1.1,0-2-0.3-2.8-1c-0.8-0.7-1.2-1.7-1.2-3.2c0-1.4,0.4-2.4,1.1-3.2c0.7-0.7,1.7-1.1,2.8-1.1C146.5,68.6,147.1,68.7,147.7,69z
	 M144.5,70.8c-0.3,0.3-0.5,0.7-0.6,1.2h3.6c0-0.6-0.2-1-0.6-1.3s-0.7-0.4-1.2-0.4C145.2,70.3,144.8,70.4,144.5,70.8z"/>
<path class="st2" d="M152.9,76.8h-2.1V66h2.1V76.8z"/>
<path class="st2" d="M161.6,75.8c-0.7,0.8-1.7,1.2-3.1,1.2c-1.4,0-2.4-0.4-3.1-1.2c-0.7-0.8-1-1.8-1-3c0-1.1,0.3-2.1,1-3
	c0.7-0.8,1.7-1.3,3.1-1.3c1.4,0,2.4,0.4,3.1,1.3c0.7,0.8,1,1.8,1,3C162.6,74,162.3,74.9,161.6,75.8z M159.9,74.6
	c0.3-0.4,0.5-1,0.5-1.8c0-0.8-0.2-1.4-0.5-1.8s-0.8-0.6-1.4-0.6c-0.6,0-1.1,0.2-1.4,0.6c-0.3,0.4-0.5,1-0.5,1.8
	c0,0.8,0.2,1.4,0.5,1.8c0.3,0.4,0.8,0.6,1.4,0.6C159.1,75.3,159.6,75.1,159.9,74.6z"/>
<path class="st2" d="M170.5,69.2c0.5,0.4,0.8,1.1,0.8,2.1v5.4h-2.1v-4.8c0-0.4-0.1-0.7-0.2-1c-0.2-0.4-0.6-0.6-1.2-0.6
	c-0.7,0-1.2,0.3-1.4,0.9c-0.1,0.3-0.2,0.7-0.2,1.2v4.3h-2.1v-7.9h2V70c0.3-0.4,0.5-0.7,0.8-0.9c0.4-0.3,1-0.5,1.6-0.5
	C169.3,68.6,170,68.8,170.5,69.2z"/>
<path class="st2" d="M176.4,71.9c0.4,0,0.7-0.1,0.8-0.2c0.3-0.1,0.4-0.3,0.4-0.6c0-0.3-0.1-0.6-0.3-0.7c-0.2-0.1-0.6-0.2-1-0.2
	c-0.5,0-0.9,0.1-1.1,0.4c-0.1,0.2-0.2,0.4-0.3,0.7h-2c0-0.7,0.2-1.3,0.6-1.7c0.6-0.7,1.5-1.1,2.8-1.1c0.9,0,1.7,0.2,2.3,0.5
	c0.7,0.3,1,1,1,2v3.7c0,0.3,0,0.6,0,0.9c0,0.3,0.1,0.5,0.1,0.6s0.2,0.2,0.3,0.2v0.3h-2.3c-0.1-0.2-0.1-0.3-0.1-0.5
	c0-0.1,0-0.3-0.1-0.5c-0.3,0.3-0.6,0.6-1,0.8c-0.5,0.3-1,0.4-1.5,0.4c-0.7,0-1.3-0.2-1.8-0.6c-0.5-0.4-0.7-1-0.7-1.7
	c0-1,0.4-1.7,1.1-2.1c0.4-0.2,1-0.4,1.8-0.5L176.4,71.9z M177.7,72.9c-0.1,0.1-0.3,0.2-0.4,0.2s-0.3,0.1-0.6,0.1l-0.5,0.1
	c-0.4,0.1-0.8,0.2-1,0.3c-0.3,0.2-0.5,0.5-0.5,0.9c0,0.4,0.1,0.6,0.3,0.8s0.4,0.2,0.7,0.2c0.5,0,0.9-0.1,1.3-0.4
	c0.4-0.3,0.6-0.7,0.6-1.4V72.9z"/>
<path class="st2" d="M187.9,76.8h-2.2V66h2.2V76.8z"/>
<path class="st2" d="M196.3,69.2c0.5,0.4,0.8,1.1,0.8,2.1v5.4h-2.1v-4.8c0-0.4-0.1-0.7-0.2-1c-0.2-0.4-0.6-0.6-1.2-0.6
	c-0.7,0-1.2,0.3-1.4,0.9c-0.1,0.3-0.2,0.7-0.2,1.2v4.3h-2.1v-7.9h2V70c0.3-0.4,0.5-0.7,0.8-0.9c0.4-0.3,1-0.5,1.6-0.5
	C195.1,68.6,195.8,68.8,196.3,69.2z"/>
<path class="st2" d="M201.1,67.8H199v-1.9h2.1V67.8z M199,68.8h2.1v8H199V68.8z"/>
<path class="st2" d="M202.3,70.3v-1.5h1.1v-2.2h2.1v2.2h1.3v1.5h-1.3v4.2c0,0.3,0,0.5,0.1,0.6s0.3,0.1,0.8,0.1c0.1,0,0.1,0,0.2,0
	c0.1,0,0.1,0,0.2,0v1.6l-1,0c-1,0-1.7-0.1-2-0.5c-0.2-0.2-0.4-0.6-0.4-1.1v-4.9H202.3z"/>
<path class="st2" d="M210.3,67.8h-2.1v-1.9h2.1V67.8z M208.2,68.8h2.1v8h-2.1V68.8z"/>
<path class="st2" d="M215.4,71.9c0.4,0,0.7-0.1,0.8-0.2c0.3-0.1,0.4-0.3,0.4-0.6c0-0.3-0.1-0.6-0.3-0.7c-0.2-0.1-0.6-0.2-1-0.2
	c-0.5,0-0.9,0.1-1.1,0.4c-0.1,0.2-0.2,0.4-0.3,0.7h-2c0-0.7,0.2-1.3,0.6-1.7c0.6-0.7,1.5-1.1,2.8-1.1c0.9,0,1.7,0.2,2.3,0.5s1,1,1,2
	v3.7c0,0.3,0,0.6,0,0.9c0,0.3,0.1,0.5,0.1,0.6c0.1,0.1,0.2,0.2,0.3,0.2v0.3H217c-0.1-0.2-0.1-0.3-0.1-0.5c0-0.1,0-0.3-0.1-0.5
	c-0.3,0.3-0.6,0.6-1,0.8c-0.5,0.3-1,0.4-1.5,0.4c-0.7,0-1.3-0.2-1.8-0.6c-0.5-0.4-0.7-1-0.7-1.7c0-1,0.4-1.7,1.1-2.1
	c0.4-0.2,1-0.4,1.8-0.5L215.4,71.9z M216.7,72.9c-0.1,0.1-0.3,0.2-0.4,0.2s-0.3,0.1-0.6,0.1l-0.5,0.1c-0.4,0.1-0.8,0.2-1,0.3
	c-0.3,0.2-0.5,0.5-0.5,0.9c0,0.4,0.1,0.6,0.3,0.8s0.4,0.2,0.7,0.2c0.5,0,0.9-0.1,1.3-0.4c0.4-0.3,0.6-0.7,0.6-1.4V72.9z"/>
<path class="st2" d="M219.8,70.3v-1.5h1.1v-2.2h2.1v2.2h1.3v1.5H223v4.2c0,0.3,0,0.5,0.1,0.6s0.3,0.1,0.8,0.1c0.1,0,0.1,0,0.2,0
	c0.1,0,0.1,0,0.2,0v1.6l-1,0c-1,0-1.7-0.1-2-0.5c-0.2-0.2-0.4-0.6-0.4-1.1v-4.9H219.8z"/>
<path class="st2" d="M227.7,67.8h-2.1v-1.9h2.1V67.8z M225.6,68.8h2.1v8h-2.1V68.8z"/>
<path class="st2" d="M234.7,68.8h2.2l-2.9,8h-2.2l-2.9-8h2.3l1.7,5.9L234.7,68.8z"/>
<path class="st2" d="M243.3,69c0.6,0.2,1,0.6,1.4,1.2c0.3,0.5,0.5,1,0.6,1.6c0.1,0.4,0.1,0.9,0.1,1.6h-5.8c0,0.8,0.3,1.4,0.8,1.7
	c0.3,0.2,0.7,0.3,1.1,0.3c0.5,0,0.9-0.1,1.2-0.4c0.2-0.1,0.3-0.3,0.4-0.5h2.1c-0.1,0.5-0.3,1-0.8,1.4c-0.7,0.8-1.7,1.2-3,1.2
	c-1.1,0-2-0.3-2.8-1c-0.8-0.7-1.2-1.7-1.2-3.2c0-1.4,0.4-2.4,1.1-3.2c0.7-0.7,1.7-1.1,2.8-1.1C242.1,68.6,242.7,68.7,243.3,69z
	 M240.2,70.8c-0.3,0.3-0.5,0.7-0.6,1.2h3.6c0-0.6-0.2-1-0.6-1.3s-0.7-0.4-1.2-0.4C240.9,70.3,240.4,70.4,240.2,70.8z"/>
<path class="st2" d="M253.8,65.9c0.1,0,0.3,0,0.4,0v1.7c-0.1,0-0.3,0-0.6,0c-0.3,0-0.5,0.1-0.6,0.2S253,68,253,68.2
	c0,0.2,0,0.4,0,0.7h1.4v1.5H253v6.4h-2.1v-6.4h-1.2v-1.5h1.1v-0.5c0-0.9,0.1-1.4,0.4-1.8c0.3-0.5,1-0.7,2.2-0.7
	C253.6,65.9,253.7,65.9,253.8,65.9z"/>
<path class="st2" d="M262.2,75.8c-0.7,0.8-1.7,1.2-3.1,1.2c-1.4,0-2.4-0.4-3.1-1.2c-0.7-0.8-1-1.8-1-3c0-1.1,0.3-2.1,1-3
	c0.7-0.8,1.7-1.3,3.1-1.3c1.4,0,2.4,0.4,3.1,1.3c0.7,0.8,1,1.8,1,3C263.2,74,262.8,74.9,262.2,75.8z M260.5,74.6
	c0.3-0.4,0.5-1,0.5-1.8c0-0.8-0.2-1.4-0.5-1.8s-0.8-0.6-1.4-0.6c-0.6,0-1.1,0.2-1.4,0.6c-0.3,0.4-0.5,1-0.5,1.8
	c0,0.8,0.2,1.4,0.5,1.8c0.3,0.4,0.8,0.6,1.4,0.6C259.7,75.3,260.2,75.1,260.5,74.6z"/>
<path class="st2" d="M269.1,68.6c0,0,0.1,0,0.2,0v2.1c-0.1,0-0.2,0-0.4,0s-0.2,0-0.2,0c-0.8,0-1.4,0.3-1.7,0.8
	c-0.2,0.3-0.2,0.8-0.2,1.4v3.8h-2.1v-8h2v1.4c0.3-0.5,0.6-0.9,0.8-1.1C267.9,68.8,268.4,68.6,269.1,68.6
	C269,68.6,269.1,68.6,269.1,68.6z"/>
<path class="st2" d="M117.2,83.9v1.9H114v8.9h-2.3v-8.9h-3.2v-1.9H117.2z"/>
<path class="st2" d="M122.4,86.9c0.6,0.2,1,0.6,1.4,1.2c0.3,0.5,0.5,1,0.6,1.6c0.1,0.4,0.1,0.9,0.1,1.6h-5.8c0,0.8,0.3,1.4,0.8,1.7
	c0.3,0.2,0.7,0.3,1.1,0.3c0.5,0,0.9-0.1,1.2-0.4c0.2-0.1,0.3-0.3,0.4-0.5h2.1c-0.1,0.5-0.3,1-0.8,1.4c-0.7,0.8-1.7,1.2-3,1.2
	c-1.1,0-2-0.3-2.8-1c-0.8-0.7-1.2-1.7-1.2-3.2c0-1.4,0.4-2.4,1.1-3.2s1.7-1.1,2.8-1.1C121.2,86.5,121.9,86.7,122.4,86.9z
	 M119.3,88.7c-0.3,0.3-0.5,0.7-0.6,1.2h3.6c0-0.6-0.2-1-0.6-1.3c-0.3-0.3-0.7-0.4-1.2-0.4C120,88.3,119.6,88.4,119.3,88.7z"/>
<path class="st2" d="M130.3,89.6c0-0.3-0.1-0.6-0.3-0.8c-0.2-0.3-0.6-0.5-1.1-0.5c-0.7,0-1.2,0.3-1.4,1c-0.1,0.4-0.2,0.9-0.2,1.5
	c0,0.6,0.1,1.1,0.2,1.4c0.2,0.7,0.7,1,1.4,1c0.5,0,0.8-0.1,1-0.4c0.2-0.3,0.3-0.6,0.4-1h2.1c0,0.6-0.3,1.2-0.7,1.8
	c-0.7,0.9-1.6,1.4-2.9,1.4s-2.2-0.4-2.8-1.1c-0.6-0.8-0.9-1.7-0.9-3c0-1.4,0.3-2.4,1-3.2s1.6-1.1,2.8-1.1c1,0,1.8,0.2,2.5,0.7
	c0.6,0.4,1,1.2,1.1,2.4H130.3z"/>
<path class="st2" d="M139.6,86.8c0.4,0.2,0.7,0.4,1,0.8c0.2,0.3,0.4,0.6,0.4,0.9c0,0.3,0.1,0.8,0.1,1.5v4.7h-2.1v-4.8
	c0-0.4-0.1-0.8-0.2-1c-0.2-0.4-0.5-0.6-1.1-0.6c-0.5,0-1,0.2-1.2,0.6c-0.3,0.4-0.4,0.9-0.4,1.6v4.3h-2.1V84h2.1v3.8
	c0.3-0.5,0.6-0.8,1-1s0.8-0.3,1.2-0.3C138.8,86.5,139.2,86.6,139.6,86.8z"/>
<path class="st2" d="M149.4,87.2c0.5,0.4,0.8,1.1,0.8,2.1v5.4h-2.1v-4.8c0-0.4-0.1-0.7-0.2-1c-0.2-0.4-0.6-0.6-1.2-0.6
	c-0.7,0-1.2,0.3-1.4,0.9c-0.1,0.3-0.2,0.7-0.2,1.2v4.3H143v-7.9h2v1.2c0.3-0.4,0.5-0.7,0.8-0.9c0.4-0.3,1-0.5,1.6-0.5
	C148.2,86.6,148.9,86.8,149.4,87.2z"/>
<path class="st2" d="M158.8,93.7c-0.7,0.8-1.7,1.2-3.1,1.2c-1.4,0-2.4-0.4-3.1-1.2c-0.7-0.8-1-1.8-1-3c0-1.1,0.3-2.1,1-3
	s1.7-1.3,3.1-1.3c1.4,0,2.4,0.4,3.1,1.3s1,1.8,1,3C159.8,91.9,159.5,92.9,158.8,93.7z M157.1,92.6c0.3-0.4,0.5-1,0.5-1.8
	s-0.2-1.4-0.5-1.8c-0.3-0.4-0.8-0.6-1.4-0.6c-0.6,0-1.1,0.2-1.4,0.6c-0.3,0.4-0.5,1-0.5,1.8s0.2,1.4,0.5,1.8
	c0.3,0.4,0.8,0.6,1.4,0.6C156.3,93.2,156.8,93,157.1,92.6z"/>
<path class="st2" d="M163.4,94.7h-2.1V83.9h2.1V94.7z"/>
<path class="st2" d="M172.1,93.7c-0.7,0.8-1.7,1.2-3.1,1.2c-1.4,0-2.4-0.4-3.1-1.2c-0.7-0.8-1-1.8-1-3c0-1.1,0.3-2.1,1-3
	c0.7-0.8,1.7-1.3,3.1-1.3c1.4,0,2.4,0.4,3.1,1.3c0.7,0.8,1,1.8,1,3C173.1,91.9,172.8,92.9,172.1,93.7z M170.4,92.6
	c0.3-0.4,0.5-1,0.5-1.8s-0.2-1.4-0.5-1.8c-0.3-0.4-0.8-0.6-1.4-0.6c-0.6,0-1.1,0.2-1.4,0.6c-0.3,0.4-0.5,1-0.5,1.8s0.2,1.4,0.5,1.8
	c0.3,0.4,0.8,0.6,1.4,0.6C169.6,93.2,170.1,93,170.4,92.6z"/>
<path class="st2" d="M178.5,86.7c0.5,0.2,0.9,0.6,1.2,1.2v-1.1h2v7.6c0,1-0.2,1.8-0.5,2.3c-0.6,0.9-1.7,1.3-3.4,1.3
	c-1,0-1.8-0.2-2.5-0.6c-0.6-0.4-1-1-1.1-1.8h2.3c0.1,0.2,0.2,0.4,0.3,0.5c0.2,0.2,0.6,0.3,1.1,0.3c0.8,0,1.3-0.3,1.5-0.8
	c0.2-0.3,0.2-0.9,0.2-1.6v-0.5c-0.2,0.3-0.4,0.6-0.6,0.8c-0.4,0.3-1,0.5-1.6,0.5c-1,0-1.8-0.4-2.5-1.1c-0.6-0.7-0.9-1.7-0.9-2.9
	c0-1.2,0.3-2.2,0.9-3c0.6-0.8,1.4-1.2,2.5-1.2C177.9,86.6,178.2,86.6,178.5,86.7z M179.2,92.4c0.3-0.4,0.5-1,0.5-1.8
	c0-0.8-0.2-1.3-0.5-1.7s-0.7-0.6-1.3-0.6c-0.7,0-1.2,0.3-1.5,1c-0.1,0.4-0.2,0.8-0.2,1.4c0,0.5,0.1,0.9,0.2,1.2c0.3,0.7,0.8,1,1.5,1
	C178.5,93,178.9,92.8,179.2,92.4z"/>
<path class="st2" d="M185.9,85.8h-2.1v-1.9h2.1V85.8z M183.8,86.7h2.1v8h-2.1V86.7z"/>
<path class="st2" d="M192.6,89.6c0-0.3-0.1-0.6-0.3-0.8c-0.2-0.3-0.6-0.5-1.1-0.5c-0.7,0-1.2,0.3-1.4,1c-0.1,0.4-0.2,0.9-0.2,1.5
	c0,0.6,0.1,1.1,0.2,1.4c0.2,0.7,0.7,1,1.4,1c0.5,0,0.8-0.1,1-0.4c0.2-0.3,0.3-0.6,0.4-1h2.1c0,0.6-0.3,1.2-0.7,1.8
	c-0.7,0.9-1.6,1.4-2.9,1.4s-2.2-0.4-2.8-1.1c-0.6-0.8-0.9-1.7-0.9-3c0-1.4,0.3-2.4,1-3.2s1.6-1.1,2.8-1.1c1,0,1.8,0.2,2.5,0.7
	c0.6,0.4,1,1.2,1.1,2.4H192.6z"/>
<path class="st2" d="M199.4,89.9c0.4,0,0.7-0.1,0.8-0.2c0.3-0.1,0.4-0.3,0.4-0.6c0-0.3-0.1-0.6-0.3-0.7c-0.2-0.1-0.6-0.2-1-0.2
	c-0.5,0-0.9,0.1-1.1,0.4c-0.1,0.2-0.2,0.4-0.3,0.7h-2c0-0.7,0.2-1.3,0.6-1.7c0.6-0.7,1.5-1.1,2.8-1.1c0.9,0,1.7,0.2,2.3,0.5s1,1,1,2
	v3.7c0,0.3,0,0.6,0,0.9c0,0.3,0.1,0.5,0.1,0.6c0.1,0.1,0.2,0.2,0.3,0.2v0.3h-2.3c-0.1-0.2-0.1-0.3-0.1-0.5s0-0.3-0.1-0.5
	c-0.3,0.3-0.6,0.6-1,0.8c-0.5,0.3-1,0.4-1.5,0.4c-0.7,0-1.3-0.2-1.8-0.6s-0.7-1-0.7-1.8c0-1,0.4-1.7,1.1-2.1c0.4-0.2,1-0.4,1.8-0.5
	L199.4,89.9z M200.6,90.8c-0.1,0.1-0.3,0.1-0.4,0.2c-0.1,0.1-0.3,0.1-0.6,0.1l-0.5,0.1c-0.4,0.1-0.8,0.2-1,0.3
	c-0.3,0.2-0.5,0.5-0.5,0.9c0,0.4,0.1,0.6,0.3,0.8c0.2,0.2,0.4,0.2,0.7,0.2c0.5,0,0.9-0.1,1.3-0.4c0.4-0.3,0.6-0.7,0.6-1.4V90.8z"/>
<path class="st2" d="M206.7,94.7h-2.1V83.9h2.1V94.7z"/>
<path class="st2" d="M214.6,91.4c0.1,0.5,0.2,0.9,0.4,1.1c0.4,0.4,1,0.7,1.9,0.7c0.5,0,1-0.1,1.3-0.2c0.6-0.2,1-0.6,1-1.2
	c0-0.4-0.2-0.6-0.5-0.8c-0.3-0.2-0.8-0.4-1.5-0.5l-1.2-0.3c-1.1-0.3-1.9-0.5-2.4-0.8c-0.7-0.5-1.1-1.3-1.1-2.3c0-1,0.4-1.8,1.1-2.4
	s1.8-1,3.1-1c1.1,0,2.1,0.3,2.9,0.9c0.8,0.6,1.2,1.5,1.3,2.6h-2.2c0-0.6-0.3-1.1-0.9-1.4c-0.4-0.2-0.8-0.3-1.3-0.3
	c-0.6,0-1.1,0.1-1.4,0.4c-0.4,0.2-0.5,0.6-0.5,1c0,0.4,0.2,0.7,0.5,0.9c0.2,0.1,0.7,0.3,1.4,0.4l1.9,0.4c0.8,0.2,1.4,0.5,1.9,0.8
	c0.6,0.5,1,1.2,1,2.2c0,1-0.4,1.8-1.1,2.5c-0.8,0.7-1.8,1-3.2,1c-1.4,0-2.5-0.3-3.3-1c-0.8-0.6-1.2-1.5-1.2-2.6H214.6z"/>
<path class="st2" d="M229.5,93.7c-0.7,0.8-1.7,1.2-3.1,1.2c-1.4,0-2.4-0.4-3.1-1.2c-0.7-0.8-1-1.8-1-3c0-1.1,0.3-2.1,1-3
	s1.7-1.3,3.1-1.3c1.4,0,2.4,0.4,3.1,1.3s1,1.8,1,3C230.5,91.9,230.1,92.9,229.5,93.7z M227.8,92.6c0.3-0.4,0.5-1,0.5-1.8
	s-0.2-1.4-0.5-1.8c-0.3-0.4-0.8-0.6-1.4-0.6c-0.6,0-1.1,0.2-1.4,0.6c-0.3,0.4-0.5,1-0.5,1.8s0.2,1.4,0.5,1.8
	c0.3,0.4,0.8,0.6,1.4,0.6C227,93.2,227.5,93,227.8,92.6z"/>
<path class="st2" d="M236.6,86.7h2.2l-2.9,8h-2.2l-2.9-8h2.3l1.7,5.9L236.6,86.7z"/>
<path class="st2" d="M245.2,86.9c0.6,0.2,1,0.6,1.4,1.2c0.3,0.5,0.5,1,0.6,1.6c0.1,0.4,0.1,0.9,0.1,1.6h-5.8c0,0.8,0.3,1.4,0.8,1.7
	c0.3,0.2,0.7,0.3,1.1,0.3c0.5,0,0.9-0.1,1.2-0.4c0.2-0.1,0.3-0.3,0.4-0.5h2.1c-0.1,0.5-0.3,1-0.8,1.4c-0.7,0.8-1.7,1.2-3,1.2
	c-1.1,0-2-0.3-2.8-1c-0.8-0.7-1.2-1.7-1.2-3.2c0-1.4,0.4-2.4,1.1-3.2s1.7-1.1,2.8-1.1C244,86.5,244.7,86.7,245.2,86.9z M242.1,88.7
	c-0.3,0.3-0.5,0.7-0.6,1.2h3.6c0-0.6-0.2-1-0.6-1.3c-0.3-0.3-0.7-0.4-1.2-0.4C242.8,88.3,242.4,88.4,242.1,88.7z"/>
<path class="st2" d="M252.8,86.6c0,0,0.1,0,0.2,0v2.1c-0.1,0-0.2,0-0.4,0c-0.1,0-0.2,0-0.2,0c-0.8,0-1.4,0.3-1.7,0.8
	c-0.2,0.3-0.2,0.8-0.2,1.4v3.8h-2.1v-8h2v1.4c0.3-0.5,0.6-0.9,0.8-1.1C251.5,86.7,252,86.6,252.8,86.6
	C252.7,86.6,252.7,86.6,252.8,86.6z"/>
<path class="st2" d="M259.4,86.9c0.6,0.2,1,0.6,1.4,1.2c0.3,0.5,0.5,1,0.6,1.6c0.1,0.4,0.1,0.9,0.1,1.6h-5.8c0,0.8,0.3,1.4,0.8,1.7
	c0.3,0.2,0.7,0.3,1.1,0.3c0.5,0,0.9-0.1,1.2-0.4c0.2-0.1,0.3-0.3,0.4-0.5h2.1c-0.1,0.5-0.3,1-0.8,1.4c-0.7,0.8-1.7,1.2-3,1.2
	c-1.1,0-2-0.3-2.8-1c-0.8-0.7-1.2-1.7-1.2-3.2c0-1.4,0.4-2.4,1.1-3.2s1.7-1.1,2.8-1.1C258.2,86.5,258.8,86.7,259.4,86.9z
	 M256.2,88.7c-0.3,0.3-0.5,0.7-0.6,1.2h3.6c0-0.6-0.2-1-0.6-1.3c-0.3-0.3-0.7-0.4-1.2-0.4C256.9,88.3,256.5,88.4,256.2,88.7z"/>
<path class="st2" d="M264.6,85.8h-2.1v-1.9h2.1V85.8z M262.5,86.7h2.1v8h-2.1V86.7z"/>
<path class="st2" d="M270.6,86.7c0.5,0.2,0.9,0.6,1.2,1.2v-1.1h2v7.6c0,1-0.2,1.8-0.5,2.3c-0.6,0.9-1.7,1.3-3.4,1.3
	c-1,0-1.8-0.2-2.5-0.6c-0.6-0.4-1-1-1.1-1.8h2.3c0.1,0.2,0.2,0.4,0.3,0.5c0.2,0.2,0.6,0.3,1.1,0.3c0.8,0,1.3-0.3,1.5-0.8
	c0.2-0.3,0.2-0.9,0.2-1.6v-0.5c-0.2,0.3-0.4,0.6-0.6,0.8c-0.4,0.3-1,0.5-1.6,0.5c-1,0-1.8-0.4-2.5-1.1c-0.6-0.7-0.9-1.7-0.9-2.9
	c0-1.2,0.3-2.2,0.9-3c0.6-0.8,1.4-1.2,2.5-1.2C269.9,86.6,270.3,86.6,270.6,86.7z M271.3,92.4c0.3-0.4,0.5-1,0.5-1.8
	c0-0.8-0.2-1.3-0.5-1.7s-0.7-0.6-1.3-0.6c-0.7,0-1.2,0.3-1.5,1c-0.1,0.4-0.2,0.8-0.2,1.4c0,0.5,0.1,0.9,0.2,1.2c0.3,0.7,0.8,1,1.5,1
	C270.5,93,271,92.8,271.3,92.4z"/>
<path class="st2" d="M282.2,87.2c0.5,0.4,0.8,1.1,0.8,2.1v5.4h-2.1v-4.8c0-0.4-0.1-0.7-0.2-1c-0.2-0.4-0.6-0.6-1.2-0.6
	c-0.7,0-1.2,0.3-1.4,0.9c-0.1,0.3-0.2,0.7-0.2,1.2v4.3h-2.1v-7.9h2v1.2c0.3-0.4,0.5-0.7,0.8-0.9c0.4-0.3,1-0.5,1.6-0.5
	C281,86.6,281.7,86.8,282.2,87.2z"/>
<path class="st2" d="M284.1,88.3v-1.5h1.1v-2.2h2.1v2.2h1.3v1.5h-1.3v4.2c0,0.3,0,0.5,0.1,0.6c0.1,0.1,0.3,0.1,0.8,0.1
	c0.1,0,0.1,0,0.2,0c0.1,0,0.1,0,0.2,0v1.6l-1,0c-1,0-1.7-0.1-2-0.5c-0.2-0.2-0.4-0.6-0.4-1.1v-4.9H284.1z"/>
<path class="st2" d="M290.2,96.2l0.3,0c0.2,0,0.4,0,0.6,0c0.2,0,0.3-0.1,0.5-0.2c0.1-0.1,0.2-0.3,0.3-0.5c0.1-0.3,0.1-0.4,0.1-0.5
	l-2.9-8.3h2.3l1.7,5.9l1.6-5.9h2.2l-2.7,7.8c-0.5,1.5-0.9,2.4-1.3,2.8c-0.3,0.4-0.9,0.5-1.8,0.5c-0.2,0-0.3,0-0.4,0
	c-0.1,0-0.3,0-0.5,0V96.2z"/>
</svg>
