<?xml version="1.0" encoding="UTF-8" standalone="no"?>
<svg width="110px" height="115px" viewBox="0 0 110 115" version="1.1" xmlns="http://www.w3.org/2000/svg" xmlns:xlink="http://www.w3.org/1999/xlink">
    <!-- Generator: Sketch 41.1 (35376) - http://www.bohemiancoding.com/sketch -->
    <title>Group 2</title>
    <desc>Created with Sketch.</desc>
    <defs></defs>
    <g id="Pages" stroke="none" stroke-width="1" fill="none" fill-rule="evenodd">
        <g id="Who" transform="translate(-145.000000, -2856.000000)">
            <g id="Group-2" transform="translate(145.000000, 2856.000000)">
                <rect id="Rectangle-5" fill="#C4312C" x="0" y="0" width="109.700572" height="115" rx="6"></rect>
                <g id="black-envelope" transform="translate(18.283429, 30.119048)" fill="#FFFFFF">
                    <g id="Capa_1">
                        <g id="Group">
                            <path d="M5.75405621,3.64440476 L31.9620453,25.4067857 C33.1504682,26.3925 34.788141,26.8305952 36.3787993,26.7484524 C37.9668457,26.8305952 39.6045185,26.3952381 40.7929414,25.4067857 L67.0009305,3.64440476 C69.1009129,1.91119048 68.6255438,0.490119048 65.961387,0.490119048 L36.3814113,0.490119048 L6.80143549,0.490119048 C4.13466681,0.490119048 3.65929766,1.91119048 5.75405621,3.64440476 Z" id="Shape"></path>
                            <path d="M68.8945714,9.38619048 L40.2548862,32.1808333 C39.1839997,33.0241667 37.7813995,33.434881 36.3840232,33.4157143 C34.9840349,33.434881 33.5814347,33.0214286 32.5105482,32.1808333 L3.86563922,9.38619048 C1.73953765,7.69678571 0,8.60309524 0,11.3986905 L0,48.7983333 C0,51.5939286 2.18356377,53.8829762 4.85033245,53.8829762 L36.3787993,53.8829762 L67.9098781,53.8829762 C70.5766468,53.8829762 72.7602106,51.5939286 72.7602106,48.7983333 L72.7602106,11.3986905 C72.7602106,8.60309524 71.0206729,7.69678571 68.8945714,9.38619048 Z" id="Shape"></path>
                        </g>
                    </g>
                </g>
            </g>
        </g>
    </g>
</svg>