<?xml version="1.0" encoding="UTF-8" standalone="no"?>
<svg width="110px" height="115px" viewBox="0 0 110 115" version="1.1" xmlns="http://www.w3.org/2000/svg" xmlns:xlink="http://www.w3.org/1999/xlink">
    <!-- Generator: Sketch 41.1 (35376) - http://www.bohemiancoding.com/sketch -->
    <title>Fill 14</title>
    <desc>Created with Sketch.</desc>
    <defs></defs>
    <g id="Pages" stroke="none" stroke-width="1" fill="none" fill-rule="evenodd">
        <g id="Who" transform="translate(-337.000000, -2856.000000)" fill="#39579A">
            <path d="M343.054424,2856 C339.709899,2856 337,2858.84081 337,2862.3469 L337,2964.6531 C337,2968.15833 339.709899,2971 343.054424,2971 L395.594329,2971 L395.594329,2926.46612 L381.298408,2926.46612 L381.298408,2909.11017 L395.594329,2909.11017 L395.594329,2896.3108 C395.594329,2881.45698 404.248497,2873.36888 416.888391,2873.36888 C422.942815,2873.36888 428.146825,2873.84156 429.663103,2874.05269 L429.663103,2889.57567 L420.896724,2889.57998 C414.022302,2889.57998 412.691397,2893.0042 412.691397,2898.02916 L412.691397,2909.11017 L429.086021,2909.11017 L426.951148,2926.46612 L412.691397,2926.46612 L412.691397,2971 L440.646148,2971 C443.989851,2971 446.700572,2968.15833 446.700572,2964.6531 L446.700572,2862.3469 C446.700572,2858.84081 443.989851,2856 440.646148,2856 L343.054424,2856 Z" id="Fill-14"></path>
        </g>
    </g>
</svg>