<?xml version="1.0" encoding="UTF-8" standalone="no"?>
<svg width="15px" height="24px" viewBox="0 0 15 24" version="1.1" xmlns="http://www.w3.org/2000/svg" xmlns:xlink="http://www.w3.org/1999/xlink">
    <!-- Generator: Sketch 41.1 (35376) - http://www.bohemiancoding.com/sketch -->
    <title>Shape</title>
    <desc>Created with Sketch.</desc>
    <defs></defs>
    <g id="Event-posts" stroke="none" stroke-width="1" fill="none" fill-rule="evenodd">
        <g id="All-events" transform="translate(-40.000000, -255.000000)" fill="#C4312C">
            <g id="right-chevron" transform="translate(40.000000, 255.000000)">
                <g id="Capa_1">
                    <path d="M14.4141459,10.6091865 L4.47779359,0.585060674 C4.11186833,0.194966292 3.65492883,0 3.10606762,0 C2.55720641,0 2.1002669,0.195182022 1.73434164,0.585060674 L0.576085409,1.7400809 C0.200071174,2.11992809 0.0120640569,2.58164494 0.0120640569,3.12571685 C0.0120640569,3.65948764 0.200017794,4.12670562 0.576085409,4.52693933 L7.98282918,11.9951461 L0.575765125,19.4787236 C0.199857651,19.8585708 0.0118505338,20.3202876 0.0118505338,20.8644135 C0.0118505338,21.3981303 0.19980427,21.8655101 0.575765125,22.265582 L1.73412811,23.4204404 C2.11008897,23.8002876 2.5675089,23.9901843 3.10585409,23.9901843 C3.64441281,23.9901843 4.10172598,23.8002876 4.47758007,23.4204404 L14.4141459,13.3963146 C14.7902669,12.995973 14.9784342,12.5288629 14.9784342,11.9950921 C14.9784875,11.4510202 14.7902669,10.9890337 14.4141459,10.6091865 Z" id="Shape" transform="translate(7.495142, 11.995092) scale(-1, 1) translate(-7.495142, -11.995092) "></path>
                </g>
            </g>
        </g>
    </g>
</svg>