<?xml version="1.0" encoding="UTF-8" standalone="no"?>
<svg width="110px" height="115px" viewBox="0 0 110 115" version="1.1" xmlns="http://www.w3.org/2000/svg" xmlns:xlink="http://www.w3.org/1999/xlink">
    <!-- Generator: Sketch 41.1 (35376) - http://www.bohemiancoding.com/sketch -->
    <title>Group 3</title>
    <desc>Created with Sketch.</desc>
    <defs></defs>
    <g id="Pages" stroke="none" stroke-width="1" fill="none" fill-rule="evenodd">
        <g id="Who" transform="translate(-478.000000, -2856.000000)">
            <g id="Group-3" transform="translate(478.000000, 2856.000000)">
                <rect id="Rectangle-5" fill="#1DA1F2" x="0" y="0" width="109.700572" height="115" rx="6"></rect>
                <path d="M41.283397,88.5472044 C68.8823058,88.5472044 83.9747643,64.6599672 83.9747643,43.9468557 C83.9747643,43.268083 83.9616002,42.5923665 83.9317617,41.9203173 C86.8612057,39.7079645 89.4080142,36.9473369 91.4171436,33.8040783 C88.7284557,35.051602 85.835286,35.8926567 82.8002368,36.2716203 C85.898181,34.3315712 88.2764894,31.2607435 89.398068,27.6006886 C86.4984625,29.3961815 83.2884775,30.7020778 79.8707927,31.4052998 C77.132959,28.3586158 73.2334693,26.4527956 68.9185801,26.4527956 C60.6316526,26.4527956 53.9118344,33.4730964 53.9118344,42.1272192 C53.9118344,43.3576285 54.0437676,44.5535031 54.3009057,45.7013961 C41.8310223,45.0464614 30.7732046,38.8085372 23.3735353,29.3237506 C22.0837491,31.6397071 21.3415882,34.3315712 21.3415882,37.2022205 C21.3415882,42.6409594 23.9904913,47.4418781 28.0184038,50.2504874 C25.5576005,50.1713329 23.2451125,49.4647492 21.222819,48.2893508 C21.2193086,48.3547526 21.2193086,48.42046 21.2193086,48.4892235 C21.2193086,56.0819426 26.3922025,62.4198033 33.2571181,63.8571144 C31.9971704,64.2152962 30.6708174,64.4084453 29.3017542,64.4084453 C28.335219,64.4084453 27.395012,64.308509 26.4811331,64.1257507 C28.3913857,70.3535897 33.9302408,74.8855665 40.4982334,75.0133139 C35.3619064,79.2176706 28.8927905,81.723109 21.8628853,81.723109 C20.6520835,81.723109 19.4579562,81.6509836 18.2834287,81.5061217 C24.9242626,85.9519149 32.8086621,88.5472044 41.283397,88.5472044" id="Fill-3" fill="#FFFFFF"></path>
            </g>
        </g>
    </g>
</svg>