<?xml version="1.0" encoding="utf-8"?>
<!-- Generator: Adobe Illustrator 20.1.0, SVG Export Plug-In . SVG Version: 6.00 Build 0)  -->
<svg version="1.1"
	 id="svg2" xmlns:cc="http://creativecommons.org/ns#" xmlns:dc="http://purl.org/dc/elements/1.1/" xmlns:rdf="http://www.w3.org/1999/02/22-rdf-syntax-ns#" xmlns:svg="http://www.w3.org/2000/svg"
	 xmlns="http://www.w3.org/2000/svg" xmlns:xlink="http://www.w3.org/1999/xlink" x="0px" y="0px" viewBox="0 0 44.3 53.9"
	 style="enable-background:new 0 0 44.3 53.9;" xml:space="preserve">
<style type="text/css">
	.st0{fill:#231F20;}
	.st1{fill:#FFFFFF;}
</style>
<g id="g10" transform="matrix(1.3333333,0,0,-1.3333333,0,226.56)">
	<g id="g12" transform="scale(0.1)">
		<path id="path24" class="st0" d="M332.1,1699.2H0v-332.1h151.4c-0.5-21.3-6.8-46.7-26.4-72.1c0,0,53.4,15.1,74.1,72.1h133.1
			L332.1,1699.2"/>
		<path id="path26" class="st1" d="M248.1,1566.7c0.1-1.8,0.1-3.5,0.1-5.3c0-54.2-41.3-116.8-116.8-116.8
			c-23.2,0-44.7,6.8-62.9,18.4c3.2-0.4,6.5-0.6,9.8-0.6c19.2,0,36.9,6.6,51,17.6c-18,0.3-33.1,12.2-38.3,28.5
			c2.5-0.5,5.1-0.7,7.7-0.7c3.7,0,7.4,0.5,10.8,1.4c-18.8,3.8-32.9,20.3-32.9,40.2c0,0.2,0,0.3,0,0.5c5.5-3.1,11.9-4.9,18.6-5.1
			c-11,7.3-18.3,19.9-18.3,34.1c0,7.5,2,14.6,5.5,20.6c20.2-24.8,50.5-41.2,84.6-42.9c-0.7,3-1.1,6.1-1.1,9.4c0,22.6,18.4,41,41,41
			c11.8,0,22.5-5,30-12.9c9.3,1.8,18.1,5.2,26.1,10c-3.1-9.6-9.6-17.6-18.1-22.7c8.3,1,16.2,3.2,23.6,6.4
			C263.1,1579.8,256.2,1572.5,248.1,1566.7"/>
	</g>
</g>
</svg>
